<svg width="128" height="128" viewBox="0 0 128 128" fill="none" xmlns="http://www.w3.org/2000/svg">
<path d="M15 97L18.8468 71.8318C19.331 67.8442 21.151 64.1609 23.988 61.4276C26.6437 58.7775 30.1921 57.3117 33.8747 57.3433H43.6177C45.6399 57.3433 47.0406 57.1566 47.8195 56.7832C48.5985 56.4098 49.1647 55.3207 49.5182 53.5158L50.3227 48.4047L50.4125 47.2938C50.4125 45.4267 49.5452 44.4932 47.8195 44.4932H22.9588L25.2058 30H52.3045C60.7652 30 64.997 33.8711 65 41.6132V42.8175C64.9851 43.4094 64.9265 43.9993 64.8247 44.5819L62.2991 59.8499C61.7598 63.3195 60.0446 66.229 57.1535 68.5784C54.3487 70.9049 50.856 72.1532 47.2668 72.1119H37.4474C34.3466 72.1119 32.558 73.4111 32.0816 76.0094L31.0974 82.6049H58.9062L56.7625 97H15Z" fill="black"/>
<path d="M63 97L66.8468 71.8318C67.331 67.8442 69.151 64.1609 71.988 61.4276C74.6437 58.7775 78.1921 57.3117 81.8747 57.3433H91.6221C93.6474 57.3433 95.0481 57.1566 95.824 56.7832C96.597 56.4145 97.1722 55.3315 97.5227 53.5158L98.3272 48.4047L98.417 47.2938C98.417 45.4267 97.5527 44.4932 95.824 44.4932H70.9588L73.2058 30H100.3C108.767 30 113 33.8711 113 41.6132V42.8175C112.983 43.4095 112.923 43.9993 112.82 44.5819L110.317 59.8172C109.778 63.2868 108.064 66.1964 105.176 68.5458C102.37 70.8709 98.8782 72.119 95.2892 72.0792H85.4474C82.3466 72.0792 80.558 73.3784 80.0816 75.9767L79.0974 82.5722H106.911L104.763 96.9673L63 97Z" fill="black"/>
</svg>
