<svg width="338" height="228" viewBox="0 0 338 228" fill="none" xmlns="http://www.w3.org/2000/svg">
<path d="M155.115 114.227C155.115 152.909 148.741 181.542 135.992 200.125C123.344 218.708 103.815 228 77.406 228C51.8064 228 32.4802 218.405 19.4274 199.216C6.47579 180.027 0 151.697 0 114.227C0 75.1415 6.32402 46.3575 18.9721 27.8751C31.6201 9.29169 51.0981 0 77.406 0C103.006 0 122.332 9.69568 135.385 29.087C148.539 48.4784 155.115 76.8585 155.115 114.227ZM46.5954 114.227C46.5954 141.395 48.9226 160.888 53.5771 172.704C58.3327 184.42 66.2757 190.278 77.406 190.278C88.3339 190.278 96.2262 184.319 101.083 172.401C105.94 160.484 108.368 141.092 108.368 114.227C108.368 87.0591 105.889 67.5668 100.931 55.7502C96.0745 43.8326 88.2327 37.8738 77.406 37.8738C66.3769 37.8738 58.4845 43.8326 53.7289 55.7502C48.9732 67.5668 46.5954 87.0591 46.5954 114.227Z" fill="black" fill-opacity="0.08"/>
<path d="M331.474 53.0233C331.474 66.8598 327.274 78.6259 318.876 88.3216C310.478 98.0173 298.69 104.683 283.512 108.319V109.228C301.422 111.45 314.981 116.904 324.188 125.589C333.396 134.174 338 145.789 338 160.433C338 181.744 330.259 198.357 314.778 210.275C299.297 222.092 277.188 228 248.452 228C224.37 228 203.02 224.011 184.402 216.032V176.189C193.003 180.532 202.464 184.066 212.784 186.793C223.105 189.52 233.325 190.884 243.443 190.884C258.924 190.884 270.358 188.258 277.745 183.006C285.131 177.754 288.824 169.321 288.824 157.706C288.824 147.304 284.575 139.931 276.075 135.588C267.576 131.245 254.017 129.074 235.399 129.074H218.552V93.1694H235.703C252.904 93.1694 265.451 90.9475 273.343 86.5037C281.337 81.9588 285.334 74.2326 285.334 63.3249C285.334 46.5595 274.81 38.1767 253.764 38.1767C246.479 38.1767 239.042 39.3887 231.453 41.8126C223.965 44.2365 215.618 48.4279 206.41 54.3867L184.706 22.1183C204.943 7.57475 229.075 0.30299 257.103 0.30299C280.072 0.30299 298.184 4.94884 311.439 14.2405C324.795 23.5322 331.474 36.4598 331.474 53.0233Z" fill="black" fill-opacity="0.08"/>
</svg>
