<svg width="388" height="178" viewBox="0 0 388 178" fill="none" xmlns="http://www.w3.org/2000/svg">
<path d="M79.9507 96.6775H59.3291V54.9514H20.6884V96.6775H0V0H20.6884V37.8907H59.3291V0H79.9507V96.6775Z" fill="black" fill-opacity="0.08"/>
<path d="M153.158 96.6775L149.221 86.6262H148.687C145.261 90.9024 141.724 93.8781 138.076 95.5533C134.472 97.1844 129.756 98 123.928 98C116.765 98 111.114 95.9721 106.976 91.9163C102.883 87.8605 100.837 82.0855 100.837 74.5911C100.837 66.744 103.595 60.969 109.112 57.2659C114.673 53.5187 123.038 51.4467 134.205 51.0499L147.152 50.6532V47.413C147.152 39.9186 143.281 36.1714 135.54 36.1714C129.578 36.1714 122.571 37.9568 114.518 41.5277L107.777 27.9055C116.364 23.453 125.885 21.2267 136.341 21.2267C146.351 21.2267 154.026 23.3869 159.365 27.7072C164.704 32.0274 167.373 38.596 167.373 47.413V96.6775H153.158ZM147.152 62.4238L139.277 62.6883C133.36 62.8646 128.955 63.9226 126.063 65.8623C123.171 67.8021 121.725 70.7557 121.725 74.7233C121.725 80.4103 125.018 83.2537 131.602 83.2537C136.318 83.2537 140.078 81.9091 142.881 79.22C145.728 76.5308 147.152 72.96 147.152 68.5074V62.4238Z" fill="black" fill-opacity="0.08"/>
<path d="M302.246 96.6775H191.129V22.7476H211.484V81.5344H236.51V22.7476H256.865V81.5344H281.891V22.7476H302.246V96.6775Z" fill="black" fill-opacity="0.08"/>
<path d="M373.785 96.6775L369.848 86.6262H369.314C365.888 90.9024 362.351 93.8781 358.703 95.5533C355.099 97.1844 350.383 98 344.554 98C337.391 98 331.741 95.9721 327.603 91.9163C323.51 87.8605 321.463 82.0855 321.463 74.5911C321.463 66.744 324.222 60.969 329.739 57.2659C335.3 53.5187 343.664 51.4467 354.832 51.0499L367.779 50.6532V47.413C367.779 39.9186 363.908 36.1714 356.167 36.1714C350.205 36.1714 343.197 37.9568 335.144 41.5277L328.404 27.9055C336.991 23.453 346.512 21.2267 356.967 21.2267C366.978 21.2267 374.653 23.3869 379.992 27.7072C385.331 32.0274 388 38.596 388 47.413V96.6775H373.785ZM367.779 62.4238L359.904 62.6883C353.986 62.8646 349.582 63.9226 346.69 65.8623C343.798 67.8021 342.352 70.7557 342.352 74.7233C342.352 80.4103 345.644 83.2537 352.229 83.2537C356.945 83.2537 360.705 81.9091 363.508 79.22C366.355 76.5308 367.779 72.96 367.779 68.5074V62.4238Z" fill="black" fill-opacity="0.08"/>
<path d="M37.081 162.137H27.1778V123.318H9.93528V162.137H0V115H37.081V162.137Z" fill="black" fill-opacity="0.08"/>
<path d="M69.1291 162.782C64.9199 162.782 61.6188 161.245 59.2258 158.171H58.713C59.0549 161.181 59.2258 162.922 59.2258 163.395V178H49.4508V126.091H57.399L58.7771 130.766H59.2258C61.512 127.198 64.8986 125.414 69.3855 125.414C73.616 125.414 76.9277 127.058 79.3207 130.347C81.7138 133.636 82.9103 138.203 82.9103 144.05C82.9103 147.897 82.3441 151.24 81.2116 154.077C80.1006 156.914 78.5088 159.074 76.4363 160.557C74.3638 162.04 71.928 162.782 69.1291 162.782ZM66.2446 133.281C63.8302 133.281 62.0675 134.033 60.9565 135.538C59.8454 137.021 59.2686 139.482 59.2258 142.921V143.985C59.2258 147.854 59.792 150.627 60.9244 152.303C62.0782 153.98 63.8943 154.818 66.3728 154.818C70.7529 154.818 72.9429 151.186 72.9429 143.921C72.9429 140.374 72.3981 137.72 71.3084 135.957C70.2401 134.173 68.5522 133.281 66.2446 133.281Z" fill="black" fill-opacity="0.08"/>
<path d="M100.087 144.05C100.087 147.618 100.664 150.315 101.818 152.142C102.993 153.969 104.895 154.883 107.523 154.883C110.13 154.883 111.999 153.98 113.131 152.175C114.285 150.347 114.862 147.639 114.862 144.05C114.862 140.482 114.285 137.806 113.131 136.021C111.978 134.237 110.087 133.345 107.459 133.345C104.852 133.345 102.972 134.237 101.818 136.021C100.664 137.784 100.087 140.46 100.087 144.05ZM124.862 144.05C124.862 149.918 123.323 154.507 120.246 157.817C117.17 161.127 112.886 162.782 107.395 162.782C103.955 162.782 100.921 162.03 98.2926 160.525C95.6646 158.999 93.6455 156.817 92.2353 153.98C90.8251 151.143 90.1201 147.833 90.1201 144.05C90.1201 138.16 91.6478 133.582 94.7031 130.315C97.7585 127.048 102.053 125.414 107.587 125.414C111.027 125.414 114.061 126.166 116.689 127.671C119.317 129.176 121.336 131.336 122.746 134.151C124.156 136.967 124.862 140.267 124.862 144.05Z" fill="black" fill-opacity="0.08"/>
<path d="M156.685 154.947V133.474H149.346C148.812 137.472 148.075 141.266 147.134 144.856C146.216 148.445 144.934 151.809 143.289 154.947H156.685ZM171.716 175.066H162.935V162.137H138.834V175.066H130.052V154.947H133.065C135.116 151.745 136.836 147.704 138.225 142.824C139.614 137.945 140.586 132.367 141.141 126.091H166.46V154.947H171.716V175.066Z" fill="black" fill-opacity="0.08"/>
<path d="M174.023 126.091H184.727L191.489 146.371C192.066 148.134 192.462 150.219 192.675 152.626H192.868C193.103 150.412 193.562 148.327 194.246 146.371L200.88 126.091H211.36L196.201 166.748C194.812 170.509 192.825 173.325 190.24 175.195C187.676 177.065 184.674 178 181.234 178C179.546 178 177.89 177.817 176.266 177.452V169.649C177.441 169.929 178.723 170.069 180.112 170.069C181.843 170.069 183.349 169.531 184.631 168.457C185.934 167.403 186.949 165.802 187.676 163.653L188.252 161.879L174.023 126.091Z" fill="black" fill-opacity="0.08"/>
<path d="M241.325 126.091H252.093L237.896 143.373L253.343 162.137H242.254L227.608 143.856V162.137H217.833V126.091H227.608V143.598L241.325 126.091Z" fill="black" fill-opacity="0.08"/>
<path d="M298.072 154.947H303.296V175.066H294.515V162.137H264.196V126.091H273.971V154.754H288.265V126.091H298.072V154.947Z" fill="black" fill-opacity="0.08"/>
<path d="M320.153 126.091V140.342C320.153 141.846 319.907 145.522 319.416 151.368L335.953 126.091H347.715V162.137H338.261V147.757C338.261 145.2 338.474 141.589 338.902 136.924L322.428 162.137H310.698V126.091H320.153Z" fill="black" fill-opacity="0.08"/>
<path d="M364.764 162.137H354.188L363.835 147.886C361.527 146.919 359.775 145.522 358.579 143.695C357.404 141.868 356.816 139.719 356.816 137.247C356.816 133.765 358.109 131.035 360.694 129.057C363.301 127.08 366.847 126.091 371.334 126.091H388V162.137H378.225V148.725H372.841L364.764 162.137ZM366.399 137.311C366.399 138.816 366.986 139.998 368.161 140.858C369.337 141.696 370.875 142.115 372.777 142.115H378.225V133.023H371.527C369.924 133.023 368.664 133.421 367.745 134.216C366.847 134.99 366.399 136.021 366.399 137.311Z" fill="black" fill-opacity="0.08"/>
</svg>
