<svg width="533" height="425" viewBox="0 0 533 425" fill="none" xmlns="http://www.w3.org/2000/svg">
<path d="M68.7758 83.8529H51.0364V47.6619H17.7967V83.8529H0V0H17.7967V32.8644H51.0364V0H68.7758V83.8529Z" fill="#E8E8E8"/>
<path d="M131.751 83.8529L128.364 75.1349H127.905C124.958 78.8439 121.915 81.4249 118.777 82.8779C115.676 84.2926 111.62 85 106.606 85C100.444 85 95.5834 83.2411 92.0241 79.7233C88.503 76.2056 86.7424 71.1966 86.7424 64.6964C86.7424 57.8902 89.1153 52.8812 93.8611 49.6694C98.6452 46.4193 105.84 44.6221 115.447 44.278L126.584 43.9339V41.1235C126.584 34.6233 123.254 31.3731 116.595 31.3731C111.467 31.3731 105.439 32.9217 98.5113 36.0189L92.713 24.2038C100.1 20.3419 108.29 18.4109 117.284 18.4109C125.895 18.4109 132.497 20.2845 137.09 24.0317C141.683 27.7789 143.979 33.4762 143.979 41.1235V83.8529H131.751ZM126.584 54.143L119.81 54.3725C114.72 54.5254 110.931 55.4431 108.443 57.1255C105.955 58.8079 104.711 61.3698 104.711 64.8111C104.711 69.7436 107.544 72.2098 113.208 72.2098C117.265 72.2098 120.499 71.0436 122.91 68.7112C125.359 66.3788 126.584 63.2816 126.584 59.4197V54.143Z" fill="#E8E8E8"/>
<path d="M260 83.8529H164.414V19.7301H181.924V70.7186H203.452V19.7301H220.962V70.7186H242.49V19.7301H260V83.8529Z" fill="#E8E8E8"/>
<path d="M67.0849 188.773H53.5156V147.18L52.7538 150.107C51.0398 156.748 49.5003 161.768 48.1355 165.167L38.7083 188.773H28.3766L18.8066 164.979C17.4418 161.516 15.9817 156.654 14.4264 150.391L13.5217 147.18V188.773H0V135.991H19.9969L29.1384 158.511C30.0906 160.934 30.9635 163.72 31.757 166.867C32.5823 170.014 33.1378 172.705 33.4234 174.94C34.4709 170.219 35.2803 166.835 35.8516 164.79C36.4547 162.712 37.1054 160.808 37.8037 159.077C38.502 157.346 41.6603 149.651 47.2785 135.991H67.0849V188.773Z" fill="#E8E8E8"/>
<path d="M106.363 145.245C103.284 145.245 100.871 146.22 99.1257 148.172C97.38 150.092 96.3801 152.83 96.1262 156.386H116.504C116.441 152.83 115.504 150.092 113.695 148.172C111.886 146.22 109.442 145.245 106.363 145.245ZM108.41 189.717C99.8399 189.717 93.1425 187.372 88.3179 182.682C83.4932 177.993 81.0809 171.352 81.0809 162.76C81.0809 153.916 83.3027 147.086 87.7465 142.27C92.222 137.423 98.3957 135 106.267 135C113.79 135 119.646 137.124 123.836 141.373C128.026 145.622 130.121 151.492 130.121 158.983V165.97H95.7929C95.9516 170.062 97.1736 173.256 99.459 175.554C101.744 177.851 104.95 179 109.077 179C112.282 179 115.314 178.67 118.17 178.009C121.027 177.348 124.011 176.293 127.121 174.845V185.987C124.582 187.246 121.868 188.175 118.98 188.773C116.091 189.402 112.568 189.717 108.41 189.717Z" fill="#E8E8E8"/>
<path d="M158.4 135.991V156.292H178.683V135.991H193.205V188.773H178.683V167.009H158.4V188.773H143.879V135.991H158.4Z" fill="#E8E8E8"/>
<path d="M232.435 145.245C229.356 145.245 226.944 146.22 225.198 148.172C223.452 150.092 222.452 152.83 222.198 156.386H242.576C242.513 152.83 241.576 150.092 239.767 148.172C237.958 146.22 235.514 145.245 232.435 145.245ZM234.482 189.717C225.912 189.717 219.215 187.372 214.39 182.682C209.565 177.993 207.153 171.352 207.153 162.76C207.153 153.916 209.375 147.086 213.819 142.27C218.294 137.423 224.468 135 232.34 135C239.862 135 245.718 137.124 249.908 141.373C254.098 145.622 256.193 151.492 256.193 158.983V165.97H221.865C222.024 170.062 223.246 173.256 225.531 175.554C227.816 177.851 231.022 179 235.149 179C238.354 179 241.386 178.67 244.242 178.009C247.099 177.348 250.083 176.293 253.193 174.845V185.987C250.654 187.246 247.94 188.175 245.052 188.773C242.163 189.402 238.64 189.717 234.482 189.717Z" fill="#E8E8E8"/>
<path d="M303.279 178.245V146.803H292.376C291.582 152.657 290.487 158.212 289.091 163.468C287.726 168.724 285.821 173.65 283.377 178.245H303.279ZM325.609 207.704H312.563V188.773H276.759V207.704H263.714V178.245H268.189C271.236 173.555 273.792 167.638 275.855 160.494C277.918 153.349 279.362 145.182 280.187 135.991H317.801V178.245H325.609V207.704Z" fill="#E8E8E8"/>
<path d="M364.839 161.627V135.991H378.361V161.627L397.31 135.991H412.308L392.692 161.296L414.165 188.773H398.643L378.361 162.004V188.773H364.839V162.004L344.557 188.773H329.035L350.508 161.296L330.892 135.991H345.89L364.839 161.627Z" fill="#E8E8E8"/>
<path d="M445.777 145.245C442.698 145.245 440.286 146.22 438.54 148.172C436.794 150.092 435.795 152.83 435.541 156.386H455.919C455.855 152.83 454.919 150.092 453.109 148.172C451.3 146.22 448.856 145.245 445.777 145.245ZM447.825 189.717C439.254 189.717 432.557 187.372 427.732 182.682C422.908 177.993 420.495 171.352 420.495 162.76C420.495 153.916 422.717 147.086 427.161 142.27C431.637 137.423 437.81 135 445.682 135C453.205 135 459.061 137.124 463.251 141.373C467.441 145.622 469.535 151.492 469.535 158.983V165.97H435.207C435.366 170.062 436.588 173.256 438.874 175.554C441.159 177.851 444.365 179 448.491 179C451.697 179 454.728 178.67 457.585 178.009C460.442 177.348 463.425 176.293 466.536 174.845V185.987C463.997 187.246 461.283 188.175 458.394 188.773C455.506 189.402 451.983 189.717 447.825 189.717Z" fill="#E8E8E8"/>
<path d="M512.527 189.717C506.274 189.717 501.37 187.466 497.815 182.966H497.053C497.561 187.372 497.815 189.921 497.815 190.614V212H483.293V135.991H495.101L497.148 142.837H497.815C501.211 137.612 506.242 135 512.908 135C519.193 135 524.112 137.408 527.667 142.223C531.222 147.039 533 153.727 533 162.288C533 167.921 532.159 172.815 530.477 176.97C528.826 181.124 526.461 184.288 523.382 186.459C520.304 188.631 516.685 189.717 512.527 189.717ZM508.242 146.519C504.655 146.519 502.036 147.621 500.386 149.824C498.735 151.996 497.878 155.599 497.815 160.635V162.193C497.815 167.858 498.656 171.918 500.338 174.373C502.052 176.828 504.75 178.056 508.432 178.056C514.939 178.056 518.193 172.737 518.193 162.099C518.193 156.906 517.383 153.019 515.765 150.438C514.177 147.825 511.67 146.519 508.242 146.519Z" fill="#E8E8E8"/>
<path d="M24.9695 318C8.32318 318 0 308.771 0 290.314C0 281.134 2.26416 274.128 6.79248 269.296C11.3208 264.432 17.8103 262 26.2611 262C32.4476 262 37.9964 263.224 42.9074 265.672L38.6023 277.075C36.3063 276.141 34.1697 275.384 32.1925 274.804C30.2154 274.192 28.2382 273.886 26.2611 273.886C18.6714 273.886 14.8765 279.33 14.8765 290.217C14.8765 300.783 18.6714 306.066 26.2611 306.066C29.0674 306.066 31.6664 305.695 34.0581 304.954C36.4498 304.181 38.8415 302.989 41.2332 301.379V313.99C38.8734 315.504 36.4817 316.55 34.0581 317.13C31.6664 317.71 28.6368 318 24.9695 318Z" fill="#E8E8E8"/>
<path d="M104.995 277.172C104.995 280.071 104.086 282.551 102.268 284.613C100.482 286.642 97.8353 287.947 94.3275 288.526V288.913C98.1223 289.364 101.12 290.684 103.32 292.875C105.553 295.033 106.669 297.707 106.669 300.896C106.669 306.146 104.628 310.156 100.546 312.927C96.4641 315.665 90.6283 317.034 83.0386 317.034H55.6295V263.015H83.0386C90.3732 263.015 95.8582 264.223 99.4936 266.638C103.161 269.022 104.995 272.533 104.995 277.172ZM91.5531 300.123C91.5531 297.997 90.7399 296.466 89.1135 295.532C87.4872 294.566 85.0476 294.083 81.7949 294.083H70.2189V306.839H82.0819C85.1752 306.839 87.519 306.259 89.1135 305.099C90.7399 303.907 91.5531 302.248 91.5531 300.123ZM90.2137 278.331C90.2137 275.046 87.6307 273.403 82.4645 273.403H70.2189V284.081H80.7903C83.8836 284.081 86.2275 283.63 87.822 282.728C89.4165 281.826 90.2137 280.361 90.2137 278.331Z" fill="#E8E8E8"/>
<path d="M128.384 317.034H112.598L126.996 295.677C123.552 294.228 120.937 292.134 119.152 289.396C117.398 286.658 116.521 283.437 116.521 279.733C116.521 274.514 118.45 270.423 122.309 267.46C126.199 264.496 131.493 263.015 138.19 263.015H163.064V317.034H148.474V296.934H140.438L128.384 317.034ZM130.823 279.829C130.823 282.084 131.7 283.856 133.454 285.144C135.208 286.4 137.504 287.028 140.342 287.028H148.474V273.403H138.477C136.085 273.403 134.203 273.999 132.832 275.191C131.493 276.35 130.823 277.896 130.823 279.829Z" fill="#E8E8E8"/>
<path d="M208.6 289.251V263.015H222.185V289.251L241.223 263.015H256.291L236.583 288.913L258.156 317.034H242.562L222.185 289.638V317.034H208.6V289.638L188.223 317.034H172.629L194.202 288.913L174.494 263.015H189.562L208.6 289.251Z" fill="#E8E8E8"/>
<path d="M289.916 272.485C286.823 272.485 284.4 273.483 282.646 275.481C280.892 277.445 279.887 280.248 279.632 283.888H300.105C300.041 280.248 299.101 277.445 297.283 275.481C295.465 273.483 293.01 272.485 289.916 272.485ZM291.973 318C283.363 318 276.634 315.6 271.787 310.801C266.94 306.001 264.516 299.204 264.516 290.411C264.516 281.359 266.749 274.369 271.213 269.441C275.71 264.48 281.912 262 289.821 262C297.379 262 303.262 264.174 307.472 268.523C311.681 272.871 313.786 278.879 313.786 286.545V293.696H279.297C279.457 297.884 280.684 301.153 282.98 303.505C285.277 305.856 288.497 307.032 292.643 307.032C295.864 307.032 298.909 306.694 301.779 306.017C304.649 305.341 307.647 304.262 310.772 302.78V314.183C308.221 315.471 305.495 316.422 302.593 317.034C299.691 317.678 296.151 318 291.973 318Z" fill="#E8E8E8"/>
<path d="M371.855 263.015V274.079H354.347V317.034H339.758V274.079H322.203V263.015H371.855Z" fill="#E8E8E8"/>
<path d="M405.528 318C388.882 318 380.559 308.771 380.559 290.314C380.559 281.134 382.823 274.128 387.351 269.296C391.88 264.432 398.369 262 406.82 262C413.006 262 418.555 263.224 423.466 265.672L419.161 277.075C416.865 276.141 414.728 275.384 412.751 274.804C410.774 274.192 408.797 273.886 406.82 273.886C399.23 273.886 395.435 279.33 395.435 290.217C395.435 300.783 399.23 306.066 406.82 306.066C409.626 306.066 412.225 305.695 414.617 304.954C417.009 304.181 419.4 302.989 421.792 301.379V313.99C419.432 315.504 417.04 316.55 414.617 317.13C412.225 317.71 409.196 318 405.528 318Z" fill="#E8E8E8"/>
<path d="M444.32 317.034H428.535L442.933 295.677C439.489 294.228 436.874 292.134 435.088 289.396C433.334 286.658 432.457 283.437 432.457 279.733C432.457 274.514 434.386 270.423 438.245 267.46C442.136 264.496 447.429 263.015 454.126 263.015H479V317.034H464.411V296.934H456.374L444.32 317.034ZM446.76 279.829C446.76 282.084 447.637 283.856 449.391 285.144C451.144 286.4 453.441 287.028 456.279 287.028H464.411V273.403H454.413C452.021 273.403 450.14 273.999 448.769 275.191C447.429 276.35 446.76 277.896 446.76 279.829Z" fill="#E8E8E8"/>
<path d="M25.2703 425C8.42343 425 0 415.623 0 396.868C0 387.54 2.29143 380.421 6.8743 375.512C11.4572 370.569 18.0249 368.098 26.5774 368.098C32.8385 368.098 38.4541 369.342 43.4243 371.829L39.0673 383.416C36.7436 382.467 34.5813 381.698 32.5803 381.109C30.5793 380.487 28.5784 380.176 26.5774 380.176C18.8962 380.176 15.0557 385.707 15.0557 396.77C15.0557 407.506 18.8962 412.873 26.5774 412.873C29.4175 412.873 32.0478 412.497 34.4683 411.744C36.8888 410.959 39.3094 409.748 41.7299 408.111V420.925C39.3416 422.463 36.9211 423.527 34.4683 424.116C32.0478 424.705 28.9818 425 25.2703 425Z" fill="#E8E8E8"/>
<path d="M133.997 383.514C133.997 386.46 133.077 388.98 131.237 391.075C129.43 393.137 126.751 394.463 123.201 395.052V395.444C127.042 395.903 130.075 397.245 132.302 399.47C134.561 401.663 135.691 404.38 135.691 407.62C135.691 412.955 133.625 417.03 129.494 419.845C125.363 422.627 119.457 424.018 111.776 424.018H84.0368V369.129H111.776C119.199 369.129 124.75 370.357 128.429 372.811C132.141 375.233 133.997 378.801 133.997 383.514ZM120.393 406.835C120.393 404.674 119.57 403.12 117.924 402.171C116.278 401.189 113.809 400.698 110.517 400.698H98.802V413.659H110.808C113.938 413.659 116.311 413.07 117.924 411.891C119.57 410.68 120.393 408.995 120.393 406.835ZM119.038 384.693C119.038 381.354 116.423 379.685 111.195 379.685H98.802V390.535H109.501C112.631 390.535 115.003 390.077 116.617 389.16C118.231 388.244 119.038 386.755 119.038 384.693Z" fill="#E8E8E8"/>
<path d="M183.809 424.018L180.953 416.556H180.566C178.08 419.73 175.515 421.94 172.868 423.183C170.254 424.394 166.833 425 162.605 425C157.409 425 153.31 423.494 150.309 420.483C147.34 417.472 145.855 413.184 145.855 407.62C145.855 401.794 147.856 397.506 151.858 394.757C155.892 391.975 161.96 390.437 170.06 390.142L179.452 389.848V387.442C179.452 381.878 176.644 379.096 171.029 379.096C166.704 379.096 161.621 380.421 155.779 383.072L150.89 372.959C157.119 369.653 164.025 368 171.61 368C178.871 368 184.438 369.604 188.311 372.811C192.184 376.019 194.12 380.896 194.12 387.442V424.018H183.809ZM179.452 398.587L173.74 398.783C169.447 398.914 166.252 399.699 164.154 401.14C162.057 402.58 161.008 404.773 161.008 407.718C161.008 411.941 163.396 414.052 168.172 414.052C171.593 414.052 174.321 413.053 176.354 411.057C178.419 409.06 179.452 406.409 179.452 403.103V398.587Z" fill="#E8E8E8"/>
<path d="M279.563 424.018H265.766V380.765L264.992 383.809C263.249 390.715 261.684 395.935 260.296 399.47L250.71 424.018H240.205L230.475 399.274C229.087 395.674 227.602 390.617 226.021 384.103L225.101 380.765V424.018H211.353V369.129H231.685L240.98 392.548C241.948 395.068 242.836 397.965 243.643 401.238C244.482 404.511 245.046 407.309 245.337 409.633C246.402 404.724 247.225 401.205 247.806 399.078C248.419 396.917 249.081 394.937 249.791 393.137C250.501 391.337 253.712 383.334 259.424 369.129H279.563V424.018Z" fill="#E8E8E8"/>
<path d="M311.367 369.129V390.829C311.367 393.121 310.996 398.717 310.253 407.62L335.233 369.129H353V424.018H338.719V402.121C338.719 398.227 339.042 392.728 339.687 385.625L314.804 424.018H297.086V369.129H311.367Z" fill="#E8E8E8"/>
</svg>
