<svg width="388" height="93" viewBox="0 0 388 93" fill="none" xmlns="http://www.w3.org/2000/svg">
<path d="M86.3049 46.4691C86.3049 61.4233 82.5849 72.9169 75.1448 80.9502C67.7047 88.9834 57.0406 93 43.1524 93C29.2643 93 18.6002 88.9834 11.1601 80.9502C3.72004 72.9169 0 61.3821 0 46.3455C0 31.309 3.72004 19.8359 11.1601 11.9262C18.6415 3.97542 29.347 0 43.2764 0C57.2059 0 67.8494 3.99601 75.2068 11.988C82.6055 19.9801 86.3049 31.4738 86.3049 46.4691ZM20.1502 46.4691C20.1502 56.5621 22.0722 64.1628 25.9163 69.2711C29.7603 74.3794 35.5057 76.9336 43.1524 76.9336C58.4873 76.9336 66.1547 66.7787 66.1547 46.4691C66.1547 26.1183 58.5286 15.9429 43.2764 15.9429C35.6297 15.9429 29.8636 18.5176 25.9783 23.6671C22.0929 28.7754 20.1502 36.3761 20.1502 46.4691Z" fill="black" fill-opacity="0.08"/>
<path d="M212.352 91.7641H193.194V52.7721H157.296V91.7641H138.075V1.42126H157.296V36.8292H193.194V1.42126H212.352V91.7641Z" fill="black" fill-opacity="0.08"/>
<path d="M290.783 91.7641L284.211 70.2598H251.165L244.593 91.7641H223.884L255.877 1.0505H279.375L311.491 91.7641H290.783ZM279.623 54.1934C273.547 34.7076 270.116 23.6877 269.331 21.1336C268.587 18.5794 268.049 16.5608 267.719 15.0777C266.355 20.3508 262.449 33.3894 256.001 54.1934H279.623Z" fill="black" fill-opacity="0.08"/>
<path d="M361.464 16.0664C354.23 16.0664 348.63 18.7854 344.662 24.2233C340.694 29.6199 338.71 37.1588 338.71 46.8399C338.71 66.9847 346.294 77.0571 361.464 77.0571C367.829 77.0571 375.538 75.4711 384.59 72.299V88.3654C377.15 91.4551 368.842 93 359.666 93C346.48 93 336.395 89.0246 329.409 81.0738C322.424 73.0817 318.931 61.6292 318.931 46.7163C318.931 37.3236 320.647 29.105 324.077 22.0605C327.508 14.9748 332.427 9.55747 338.833 5.80864C345.282 2.0186 352.825 0.123588 361.464 0.123588C370.268 0.123588 379.113 2.24518 388 6.48837L381.8 22.0605C378.411 20.4538 375.001 19.0532 371.57 17.8585C368.139 16.6638 364.77 16.0664 361.464 16.0664Z" fill="black" fill-opacity="0.08"/>
</svg>
