<svg width="163" height="51" viewBox="0 0 163 51" fill="none" xmlns="http://www.w3.org/2000/svg">
<path d="M0 42.8571L2.45723 26.7581C2.76648 24.2074 3.92907 21.8513 5.74119 20.1029C7.43757 18.4078 9.70418 17.4701 12.0565 17.4904H18.2799C19.5717 17.4904 20.4664 17.371 20.964 17.1321C21.4615 16.8933 21.8232 16.1966 22.049 15.0421L22.5629 11.7727L22.6203 11.0621C22.6203 9.86783 22.0663 9.27069 20.964 9.27069H5.08382L6.51912 0H23.8288C29.2332 0 31.9363 2.47617 31.9382 7.42849V8.19881C31.9287 8.57744 31.8913 8.95475 31.8263 9.32742L30.213 19.0937C29.8685 21.3131 28.7729 23.1742 26.9262 24.677C25.1346 26.1652 22.9035 26.9637 20.6109 26.9372H14.3386C12.3579 26.9372 11.2154 27.7683 10.9111 29.4303L10.2825 33.6492H28.0457L26.6764 42.8571H0Z" fill="black"/>
<path d="M30.7832 42.8571L33.2404 26.7581C33.5497 24.2074 34.7123 21.8513 36.5244 20.1029C38.2208 18.4078 40.4874 17.4701 42.8397 17.4904H49.066C50.3597 17.4904 51.2544 17.371 51.75 17.1321C52.2438 16.8962 52.6112 16.2035 52.8351 15.0421L53.349 11.7727L53.4064 11.0621C53.4064 9.86783 52.8542 9.27069 51.75 9.27069H35.867L37.3023 0H54.6091C60.0173 0 62.7214 2.47617 62.7214 7.42849V8.19881C62.7108 8.5775 62.6724 8.95479 62.6066 9.32742L61.0077 19.0728C60.6632 21.2922 59.5686 23.1533 57.7237 24.6561C55.9317 26.1434 53.701 26.9418 51.4084 26.9163H45.1218C43.1411 26.9163 41.9986 27.7474 41.6943 29.4094L41.0657 33.6283H58.8318L57.4596 42.8362L30.7832 42.8571Z" fill="black"/>
<path d="M45.0215 49.6391L48.2944 27.9087C48.5384 26.2032 49.1625 24.8283 50.1667 23.7841C50.6467 23.2772 51.2216 22.8773 51.8562 22.6089C52.4908 22.3406 53.1717 22.2095 53.857 22.2237C56.4011 22.2237 57.8427 23.6923 58.1819 26.6296L59.7112 42.3226L62.7269 22.4843H68.1094L64.6792 44.9667C64.4621 46.3407 63.7949 47.5954 62.7898 48.5199C61.8207 49.4778 60.5304 50.0086 59.1909 50.0003C56.7136 50.0003 55.3196 48.4814 55.009 45.4434L53.4082 29.8541L50.4097 49.6391H45.0215Z" fill="white" stroke="black" stroke-width="1.5"/>
<path d="M70.0332 49.6033L74.1804 22.6191H87.4328C88.972 22.6191 90.1773 22.9997 91.0489 23.7609C91.9205 24.522 92.3543 25.6128 92.3505 27.0331C92.3569 27.3594 92.3327 27.6855 92.2783 28.0071L91.2509 34.5957C91.0798 36.0949 90.358 37.4724 89.2307 38.4506C88.1049 39.427 86.6681 39.9502 85.1904 39.9219H77.1904L75.6897 49.6033H70.0332ZM78.9797 28.4574L78.1341 33.9572H83.7127C84.4727 33.9572 84.9932 33.8454 85.2741 33.6217C85.5938 33.3268 85.8073 32.931 85.8801 32.4976L86.2841 30.067L86.3188 29.8051V29.5785C86.3188 28.8075 85.7935 28.4191 84.7401 28.4191L78.9797 28.4574Z" fill="white" stroke="black" stroke-width="1.5"/>
<path d="M100.187 49.6033C98.3293 49.6033 97.0093 49.2472 96.2267 48.5352C95.4441 47.8231 95.0509 46.657 95.047 45.0367C95.0354 44.6228 95.0722 44.2089 95.1566 43.8038L97.464 28.4594C97.5711 27.514 97.8673 26.6011 98.3341 25.7771C98.8009 24.9532 99.4286 24.2357 100.178 23.6692C100.697 23.3056 101.275 23.0396 101.886 22.8836C102.685 22.6906 103.505 22.6026 104.326 22.6217H111.075C114.499 22.6217 116.211 24.0929 116.209 27.0353L116.099 28.4594L113.679 43.8038C113.091 47.6701 110.804 49.6033 106.818 49.6033H100.187ZM101.069 42.6416C101.069 43.4155 101.617 43.8186 102.719 43.8186H106.166C106.667 43.8563 107.168 43.7449 107.608 43.4978C107.914 43.2899 108.14 42.8348 108.286 42.1326L110.12 30.3072L110.195 29.5951C110.195 28.8478 109.644 28.4741 108.542 28.4741H105.104C104.368 28.4741 103.848 28.5859 103.544 28.8095C103.238 29.0361 103.013 29.5333 102.866 30.3072L101.104 41.9325L101.069 42.6416Z" fill="white" stroke="black" stroke-width="1.5"/>
<path d="M118.518 46.6148C118.514 46.1739 118.599 45.7368 118.766 45.3307C118.934 44.9245 119.181 44.5579 119.492 44.2533C119.812 43.9246 120.194 43.6664 120.615 43.4948C121.036 43.3232 121.487 43.2417 121.94 43.2554C122.306 43.26 122.666 43.3468 122.996 43.5097C123.325 43.6726 123.616 43.9076 123.847 44.1982C124.392 44.8056 124.688 45.6043 124.674 46.4291C124.678 46.8573 124.59 47.2812 124.416 47.6705C124.242 48.0597 123.986 48.4046 123.666 48.6803C123.029 49.2826 122.192 49.6126 121.326 49.6028C120.956 49.6081 120.59 49.5354 120.249 49.3892C119.908 49.2429 119.6 49.0263 119.345 48.7528C119.088 48.4726 118.881 48.1486 118.733 47.7955C118.584 47.421 118.511 47.0193 118.518 46.6148Z" fill="white" stroke="black" stroke-width="1.5"/>
<path d="M129.678 49.6033L131.969 34.6034C132.479 31.1113 134.434 29.3652 137.833 29.3652H141.222L140.457 34.527H138.558C137.486 34.527 136.867 35.076 136.699 36.174L134.659 49.6033H129.678Z" fill="white" stroke="black" stroke-width="1.5"/>
<path d="M162 29.3741L159.59 44.7437C159.078 47.9835 157.251 49.6033 154.109 49.6033H147.168C144.487 49.6033 143.147 48.3294 143.147 45.7815C143.137 45.4311 143.161 45.0805 143.219 44.7349L145.594 29.3652H150.598L148.478 43.3884C148.478 44.1117 148.955 44.4703 149.915 44.4703H153.023C154.068 44.4703 154.677 43.9999 154.85 43.0504L156.967 29.3652L162 29.3741Z" fill="white" stroke="black" stroke-width="1.5"/>
</svg>
