<svg width="303" height="74" viewBox="0 0 303 74" fill="none" xmlns="http://www.w3.org/2000/svg">
<path d="M53.7109 17.7246C53.7109 22.3145 52.0833 26.1068 48.8281 29.1016C45.5729 32.0964 41.1621 34.0007 35.5957 34.8145V35.1074C42.1387 35.7585 47.1517 37.5651 50.6348 40.5273C54.1504 43.4896 55.9082 47.347 55.9082 52.0996C55.9082 58.6751 53.2389 63.8672 47.9004 67.6758C42.5944 71.4844 35.2376 73.3887 25.8301 73.3887C15.3483 73.3887 6.93359 72.1029 0.585938 69.5312V56.8359C3.64583 58.3008 7.22656 59.4564 11.3281 60.3027C15.4622 61.1165 19.3197 61.5234 22.9004 61.5234C34.9121 61.5234 40.918 58.0241 40.918 51.0254C40.918 47.8678 38.9811 45.4427 35.1074 43.75C31.2663 42.0573 25.5697 41.2109 18.0176 41.2109H11.3281V29.3945H17.334C24.8861 29.3945 30.3874 28.6784 33.8379 27.2461C37.2884 25.8138 39.0137 23.4375 39.0137 20.1172C39.0137 17.6758 37.9232 15.7389 35.7422 14.3066C33.5938 12.8418 30.3548 12.1094 26.0254 12.1094C19.3197 12.1094 12.8418 14.0462 6.5918 17.9199L0 7.8125C4.06901 5.11068 8.38216 3.14128 12.9395 1.9043C17.4967 0.634766 22.5586 0 28.125 0C35.9049 0 42.1061 1.6276 46.7285 4.88281C51.3835 8.13802 53.7109 12.4186 53.7109 17.7246Z" fill="#E8E8E8"/>
<path d="M104.734 72.4121L101.854 64.9902H101.463C98.9564 68.1478 96.3685 70.3451 93.6992 71.582C91.0625 72.7865 87.612 73.3887 83.3477 73.3887C78.1068 73.3887 73.9727 71.8913 70.9453 68.8965C67.9505 65.9017 66.4531 61.6374 66.4531 56.1035C66.4531 50.3092 68.4714 46.0449 72.5078 43.3105C76.5768 40.5436 82.6966 39.0137 90.8672 38.7207L100.34 38.4277V36.0352C100.34 30.5013 97.5078 27.7344 91.8438 27.7344C87.4818 27.7344 82.3548 29.0527 76.4629 31.6895L71.5312 21.6309C77.8138 18.3431 84.7799 16.6992 92.4297 16.6992C99.7539 16.6992 105.369 18.2943 109.275 21.4844C113.182 24.6745 115.135 29.5247 115.135 36.0352V72.4121H104.734ZM100.34 47.1191L94.5781 47.3145C90.2487 47.4447 87.026 48.2259 84.9102 49.6582C82.7943 51.0905 81.7363 53.2715 81.7363 56.2012C81.7363 60.4004 84.1452 62.5 88.9629 62.5C92.4134 62.5 95.1641 61.5072 97.2148 59.5215C99.2982 57.5358 100.34 54.8991 100.34 51.6113V47.1191Z" fill="#E8E8E8"/>
<path d="M168.307 17.8223H184.713L163.082 43.9941L186.617 72.4121H169.723L147.408 44.7266V72.4121H132.516V17.8223H147.408V44.3359L168.307 17.8223Z" fill="#E8E8E8"/>
<path d="M231.098 72.4121L228.217 64.9902H227.826C225.32 68.1478 222.732 70.3451 220.062 71.582C217.426 72.7865 213.975 73.3887 209.711 73.3887C204.47 73.3887 200.336 71.8913 197.309 68.8965C194.314 65.9017 192.816 61.6374 192.816 56.1035C192.816 50.3092 194.835 46.0449 198.871 43.3105C202.94 40.5436 209.06 39.0137 217.23 38.7207L226.703 38.4277V36.0352C226.703 30.5013 223.871 27.7344 218.207 27.7344C213.845 27.7344 208.718 29.0527 202.826 31.6895L197.895 21.6309C204.177 18.3431 211.143 16.6992 218.793 16.6992C226.117 16.6992 231.732 18.2943 235.639 21.4844C239.545 24.6745 241.498 29.5247 241.498 36.0352V72.4121H231.098ZM226.703 47.1191L220.941 47.3145C216.612 47.4447 213.389 48.2259 211.273 49.6582C209.158 51.0905 208.1 53.2715 208.1 56.2012C208.1 60.4004 210.508 62.5 215.326 62.5C218.777 62.5 221.527 61.5072 223.578 59.5215C225.661 57.5358 226.703 54.8991 226.703 51.6113V47.1191Z" fill="#E8E8E8"/>
<path d="M272.453 38.8184C278.085 38.8184 282.072 38.3626 284.416 37.4512C286.792 36.5397 287.98 35.0911 287.98 33.1055C287.98 31.3477 287.118 30.0293 285.393 29.1504C283.667 28.2715 280.819 27.832 276.848 27.832C274.341 27.832 271.493 28.1413 268.303 28.7598C265.145 29.3783 262.264 30.2246 259.66 31.2988L255.266 20.8984C259.139 19.4336 262.899 18.3919 266.545 17.7734C270.191 17.1224 274.26 16.7969 278.752 16.7969C285.555 16.7969 291.008 18.099 295.109 20.7031C299.211 23.3073 301.262 26.8392 301.262 31.2988C301.262 37.4512 297.632 41.4551 290.373 43.3105V43.7988C294.833 44.9056 298.007 46.4844 299.895 48.5352C301.815 50.5534 302.775 53.2064 302.775 56.4941C302.775 59.8145 301.701 62.7604 299.553 65.332C297.404 67.9036 294.296 69.8893 290.227 71.2891C286.158 72.6888 281.372 73.3887 275.871 73.3887C266.757 73.3887 259.758 72.2656 254.875 70.0195V57.7148C257.674 59.0169 260.734 60.0423 264.055 60.791C267.408 61.5397 270.646 61.9141 273.771 61.9141C278.622 61.9141 282.251 61.377 284.66 60.3027C287.069 59.196 288.273 57.6335 288.273 55.6152C288.273 53.4017 287.004 51.7741 284.465 50.7324C281.926 49.6582 278.02 49.1211 272.746 49.1211H266.984V38.8184H272.453Z" fill="#E8E8E8"/>
</svg>
