<svg width="389" height="85" viewBox="0 0 389 85" fill="none" xmlns="http://www.w3.org/2000/svg">
<path d="M49.8654 63.5978H36.5478V11.2231H13.3606V63.5978H0V0H49.8654V63.5978Z" fill="#E8E8E8"/>
<path d="M97.1 63.5978L94.5572 56.9857H94.2124C92 59.7987 89.7157 61.7562 87.3597 62.8582C85.0323 63.9313 81.9867 64.4678 78.2227 64.4678C73.5968 64.4678 69.9477 63.1337 67.2756 60.4657C64.6322 57.7977 63.3105 53.9986 63.3105 49.0686C63.3105 43.9065 65.0919 40.1075 68.6548 37.6714C72.2463 35.2064 77.6481 33.8434 84.8599 33.5824L93.2211 33.3214V31.1899C93.2211 26.2598 90.7214 23.7948 85.7219 23.7948C81.8717 23.7948 77.3464 24.9693 72.1458 27.3183L67.7928 18.3572C73.3382 15.4282 79.4869 13.9637 86.2391 13.9637C92.7039 13.9637 97.6603 15.3847 101.108 18.2267C104.556 21.0687 106.28 25.3898 106.28 31.1899V63.5978H97.1ZM93.2211 41.0645L88.1355 41.2385C84.314 41.3545 81.4695 42.0505 79.6019 43.3265C77.7343 44.6025 76.8004 46.5455 76.8004 49.1556C76.8004 52.8966 78.9267 54.7671 83.1791 54.7671C86.2247 54.7671 88.6526 53.8826 90.4628 52.1136C92.3017 50.3446 93.2211 47.9956 93.2211 45.0665V41.0645Z" fill="#E8E8E8"/>
<path d="M148.084 64.4678C142.424 64.4678 137.985 62.3942 134.767 58.2472H134.077C134.537 62.3072 134.767 64.6563 134.767 65.2943V85H121.622V14.9642H132.31L134.163 21.2717H134.767C137.841 16.4577 142.395 14.0507 148.429 14.0507C154.118 14.0507 158.572 16.2692 161.79 20.7062C165.008 25.1433 166.617 31.3059 166.617 39.194C166.617 44.385 165.855 48.8946 164.333 52.7226C162.838 56.5507 160.698 59.4652 157.911 61.4662C155.124 63.4673 151.848 64.4678 148.084 64.4678ZM144.205 24.6648C140.959 24.6648 138.588 25.6798 137.094 27.7098C135.6 29.7109 134.824 33.0314 134.767 37.6714V39.107C134.767 44.327 135.528 48.0681 137.051 50.3301C138.602 52.5921 141.045 53.7231 144.378 53.7231C150.268 53.7231 153.213 48.8221 153.213 39.02C153.213 34.2349 152.48 30.6534 151.015 28.2753C149.578 25.8683 147.308 24.6648 144.205 24.6648Z" fill="#E8E8E8"/>
<path d="M219.109 14.9642V24.9258H203.335V63.5978H190.19V24.9258H174.373V14.9642H219.109Z" fill="#E8E8E8"/>
<path d="M243.028 14.9642V33.6694H261.388V14.9642H274.533V63.5978H261.388V43.544H243.028V63.5978H229.882V14.9642H243.028Z" fill="#E8E8E8"/>
<path d="M310.045 23.4903C307.258 23.4903 305.074 24.3893 303.494 26.1873C301.913 27.9563 301.008 30.4794 300.778 33.7564H319.225C319.167 30.4794 318.32 27.9563 316.682 26.1873C315.044 24.3893 312.832 23.4903 310.045 23.4903ZM311.898 64.4678C304.14 64.4678 298.077 62.3072 293.71 57.9862C289.343 53.6651 287.159 47.5461 287.159 39.629C287.159 31.4799 289.17 25.1868 293.193 20.7497C297.244 16.2837 302.833 14.0507 309.958 14.0507C316.768 14.0507 322.069 16.0082 325.862 19.9232C329.655 23.8383 331.551 29.2468 331.551 36.1489V42.587H300.477C300.62 46.357 301.727 49.3006 303.795 51.4176C305.864 53.5346 308.766 54.5931 312.501 54.5931C315.403 54.5931 318.147 54.2886 320.733 53.6796C323.319 53.0706 326.02 52.0991 328.836 50.7651V61.0312C326.537 62.1912 324.08 63.0467 321.466 63.5978C318.851 64.1778 315.662 64.4678 311.898 64.4678Z" fill="#E8E8E8"/>
<path d="M370.467 64.4678C364.807 64.4678 360.368 62.3942 357.15 58.2472H356.46C356.92 62.3072 357.15 64.6563 357.15 65.2943V85H344.005V14.9642H354.693L356.547 21.2717H357.15C360.224 16.4577 364.778 14.0507 370.812 14.0507C376.501 14.0507 380.955 16.2692 384.173 20.7062C387.391 25.1433 389 31.3059 389 39.194C389 44.385 388.239 48.8946 386.716 52.7226C385.222 56.5507 383.081 59.4652 380.294 61.4662C377.507 63.4673 374.231 64.4678 370.467 64.4678ZM366.589 24.6648C363.342 24.6648 360.971 25.6798 359.477 27.7098C357.983 29.7109 357.207 33.0314 357.15 37.6714V39.107C357.15 44.327 357.911 48.0681 359.434 50.3301C360.986 52.5921 363.428 53.7231 366.761 53.7231C372.651 53.7231 375.596 48.8221 375.596 39.02C375.596 34.2349 374.864 30.6534 373.398 28.2753C371.962 25.8683 369.692 24.6648 366.589 24.6648Z" fill="#E8E8E8"/>
</svg>
