<svg width="389" height="418" viewBox="0 0 389 418" fill="none" xmlns="http://www.w3.org/2000/svg">
<path d="M65.2482 230.129L58.8382 209H26.6072L20.1973 230.129H0L31.203 141H54.1215L85.4455 230.129H65.2482ZM54.3634 193.214C48.4372 174.069 45.0912 163.242 44.3252 160.732C43.5996 158.223 43.0755 156.239 42.753 154.782C41.4226 159.963 37.6129 172.774 31.324 193.214H54.3634Z" fill="#E8E8E8"/>
<path d="M139.988 216.589V176.154H126.14C125.132 183.682 123.741 190.826 121.968 197.586C120.234 204.345 117.815 210.68 114.711 216.589H139.988ZM168.349 254.475H151.78V230.129H106.306V254.475H89.7365V216.589H95.4208C99.2909 210.558 102.536 202.949 105.157 193.761C107.777 184.573 109.611 174.069 110.659 162.25H158.432V216.589H168.349V254.475Z" fill="#E8E8E8"/>
<path d="M219.505 231.343C211.563 231.343 205.334 228.449 200.819 222.661H199.852C200.497 228.327 200.819 231.606 200.819 232.496V260H182.376V162.25H197.372L199.973 171.054H200.819C205.133 164.335 211.523 160.975 219.989 160.975C227.971 160.975 234.219 164.071 238.735 170.264C243.25 176.457 245.507 185.058 245.507 196.068C245.507 203.313 244.439 209.607 242.302 214.95C240.206 220.293 237.203 224.361 233.292 227.154C229.382 229.946 224.786 231.343 219.505 231.343ZM214.062 175.789C209.507 175.789 206.181 177.206 204.085 180.039C201.988 182.832 200.9 187.467 200.819 193.943V195.946C200.819 203.232 201.888 208.454 204.024 211.611C206.201 214.768 209.628 216.346 214.304 216.346C222.569 216.346 226.701 209.506 226.701 195.825C226.701 189.146 225.673 184.148 223.617 180.829C221.601 177.469 218.416 175.789 214.062 175.789Z" fill="#E8E8E8"/>
<path d="M291.221 174.15C287.31 174.15 284.247 175.405 282.029 177.914C279.812 180.383 278.542 183.905 278.22 188.479H304.101C304.021 183.905 302.831 180.383 300.533 177.914C298.236 175.405 295.131 174.15 291.221 174.15ZM293.821 231.343C282.936 231.343 274.43 228.327 268.302 222.296C262.175 216.265 259.111 207.725 259.111 196.675C259.111 185.301 261.933 176.518 267.577 170.325C273.261 164.092 281.102 160.975 291.1 160.975C300.654 160.975 308.092 163.707 313.414 169.171C318.735 174.636 321.396 182.185 321.396 191.818V200.804H277.796C277.998 206.065 279.55 210.174 282.453 213.129C285.355 216.083 289.427 217.561 294.668 217.561C298.739 217.561 302.589 217.136 306.218 216.286C309.846 215.436 313.635 214.08 317.586 212.218V226.546C314.361 228.165 310.914 229.36 307.246 230.129C303.577 230.938 299.102 231.343 293.821 231.343Z" fill="#E8E8E8"/>
<path d="M366.323 231.343C345.28 231.343 334.758 219.746 334.758 196.554C334.758 185.018 337.62 176.214 343.344 170.143C349.069 164.031 357.273 160.975 367.956 160.975C375.777 160.975 382.792 162.513 389 165.589L383.558 179.918C380.655 178.744 377.954 177.793 375.455 177.064C372.955 176.295 370.456 175.911 367.956 175.911C358.361 175.911 353.564 182.751 353.564 196.432C353.564 209.708 358.361 216.346 367.956 216.346C371.504 216.346 374.789 215.881 377.813 214.95C380.836 213.979 383.86 212.481 386.884 210.457V226.304C383.9 228.206 380.877 229.521 377.813 230.25C374.789 230.979 370.96 231.343 366.323 231.343Z" fill="#E8E8E8"/>
<path d="M71.0473 89.7719H52.0727V15.8421H19.036V89.7719H0V0H71.0473V89.7719Z" fill="#E8E8E8"/>
<path d="M109.669 55.3246C109.669 62.1199 110.775 67.2573 112.985 70.7368C115.237 74.2164 118.88 75.9561 123.916 75.9561C128.91 75.9561 132.492 74.2368 134.662 70.7982C136.873 67.3187 137.978 62.1608 137.978 55.3246C137.978 48.5292 136.873 43.4327 134.662 40.0351C132.451 36.6374 128.828 34.9386 123.793 34.9386C118.799 34.9386 115.196 36.6374 112.985 40.0351C110.775 43.3918 109.669 48.4883 109.669 55.3246ZM157.137 55.3246C157.137 66.5 154.189 75.2398 148.294 81.5439C142.399 87.8479 134.191 91 123.67 91C117.079 91 111.266 89.5672 106.231 86.7018C101.195 83.7953 97.3268 79.6404 94.6249 74.2368C91.923 68.8333 90.5721 62.5292 90.5721 55.3246C90.5721 44.1082 93.4991 35.3889 99.3532 29.1667C105.207 22.9444 113.436 19.8333 124.039 19.8333C130.63 19.8333 136.443 21.2661 141.478 24.1316C146.513 26.9971 150.382 31.1111 153.084 36.4737C155.786 41.8363 157.137 48.1199 157.137 55.3246Z" fill="#E8E8E8"/>
<path d="M191.583 21.1228V46.2368C191.583 52.2134 194.346 55.2018 199.873 55.2018C203.476 55.2018 206.812 54.7924 209.882 53.9737C212.994 53.155 216.125 52.0906 219.278 50.7807V21.1228H238.006V89.7719H219.278V62.5088C214.938 64.8012 210.906 66.4181 207.18 67.3596C203.455 68.3012 199.853 68.7719 196.373 68.7719C188.881 68.7719 183.089 66.8684 178.995 63.0614C174.901 59.2134 172.854 53.7485 172.854 46.6667V21.1228H191.583Z" fill="#E8E8E8"/>
<path d="M316.973 21.1228V35.1842H294.498V89.7719H275.769V35.1842H253.233V21.1228H316.973Z" fill="#E8E8E8"/>
<path d="M375.92 89.7719L372.297 80.4386H371.806C368.654 84.4094 365.399 87.1725 362.043 88.7281C358.727 90.2427 354.387 91 349.024 91C342.433 91 337.234 89.117 333.427 85.3509C329.661 81.5848 327.778 76.2222 327.778 69.2632C327.778 61.9766 330.316 56.614 335.392 53.1754C340.509 49.6959 348.206 47.7719 358.481 47.4035L370.394 47.0351V44.0263C370.394 37.0672 366.832 33.5877 359.709 33.5877C354.223 33.5877 347.776 35.2456 340.366 38.5614L334.164 25.9123C342.065 21.7778 350.826 19.7105 360.446 19.7105C369.657 19.7105 376.719 21.7164 381.631 25.7281C386.544 29.7398 389 35.8392 389 44.0263V89.7719H375.92ZM370.394 57.9649L363.148 58.2105C357.703 58.3743 353.65 59.3567 350.989 61.1579C348.328 62.9591 346.998 65.7018 346.998 69.386C346.998 74.6667 350.027 77.307 356.086 77.307C360.426 77.307 363.885 76.0585 366.464 73.5614C369.084 71.0643 370.394 67.7485 370.394 63.614V57.9649Z" fill="#E8E8E8"/>
<path d="M66.9587 390.807H49.6881V355.93H17.3265V390.807H0V310H17.3265V341.67H49.6881V310H66.9587V390.807Z" fill="#E8E8E8"/>
<path d="M102.169 359.799C102.169 365.916 103.175 370.54 105.187 373.672C107.236 376.804 110.552 378.371 115.135 378.371C119.681 378.371 122.942 376.823 124.917 373.728C126.929 370.596 127.935 365.953 127.935 359.799C127.935 353.683 126.929 349.095 124.917 346.037C122.904 342.979 119.607 341.449 115.024 341.449C110.478 341.449 107.199 342.979 105.187 346.037C103.175 349.058 102.169 353.646 102.169 359.799ZM145.373 359.799C145.373 369.859 142.69 377.726 137.325 383.4C131.959 389.075 124.488 391.912 114.912 391.912C108.913 391.912 103.622 390.622 99.0386 388.043C94.4554 385.427 90.9342 381.687 88.4749 376.823C86.0157 371.959 84.7861 366.285 84.7861 359.799C84.7861 349.703 87.4503 341.855 92.7786 336.254C98.107 330.653 105.597 327.853 115.247 327.853C121.246 327.853 126.537 329.142 131.121 331.722C135.704 334.301 139.225 338.004 141.684 342.831C144.143 347.658 145.373 353.314 145.373 359.799Z" fill="#E8E8E8"/>
<path d="M240.499 390.807H224.57V342.113L223.676 345.539C221.664 353.314 219.856 359.191 218.254 363.171L207.188 390.807H195.059L183.825 362.95C182.222 358.897 180.508 353.204 178.683 345.871L177.621 342.113V390.807H161.747V329.013H185.222L195.953 355.378C197.071 358.215 198.096 361.476 199.027 365.161C199.996 368.845 200.648 371.996 200.983 374.612C202.213 369.085 203.163 365.124 203.834 362.729C204.542 360.297 205.306 358.068 206.126 356.041C206.945 354.014 210.653 345.005 217.248 329.013H240.499V390.807Z" fill="#E8E8E8"/>
<path d="M286.608 339.846C282.994 339.846 280.162 340.989 278.112 343.273C276.063 345.521 274.889 348.727 274.591 352.89H298.513C298.438 348.727 297.339 345.521 295.215 343.273C293.091 340.989 290.222 339.846 286.608 339.846ZM289.011 391.912C278.951 391.912 271.089 389.167 265.425 383.677C259.761 378.186 256.929 370.411 256.929 360.352C256.929 349.998 259.538 342.002 264.754 336.364C270.008 330.69 277.255 327.853 286.496 327.853C295.327 327.853 302.202 330.34 307.12 335.314C312.039 340.289 314.498 347.161 314.498 355.93V364.111H274.2C274.386 368.901 275.821 372.641 278.504 375.331C281.186 378.02 284.95 379.365 289.794 379.365C293.557 379.365 297.116 378.979 300.469 378.205C303.823 377.431 307.325 376.197 310.977 374.502V387.546C307.996 389.019 304.81 390.106 301.419 390.807C298.029 391.543 293.893 391.912 289.011 391.912Z" fill="#E8E8E8"/>
<path d="M364.966 391.912C357.626 391.912 351.869 389.277 347.696 384.008H346.801C347.398 389.167 347.696 392.151 347.696 392.962V418H330.649V329.013H344.51L346.913 337.028H347.696C351.683 330.911 357.589 327.853 365.414 327.853C372.791 327.853 378.567 330.671 382.74 336.309C386.913 341.947 389 349.777 389 359.799C389 366.395 388.013 372.125 386.038 376.989C384.1 381.853 381.324 385.556 377.71 388.098C374.095 390.641 369.848 391.912 364.966 391.912ZM359.936 341.339C355.726 341.339 352.652 342.628 350.714 345.208C348.776 347.75 347.77 351.969 347.696 357.865V359.689C347.696 366.321 348.683 371.075 350.658 373.949C352.67 376.823 355.837 378.26 360.16 378.26C367.798 378.26 371.618 372.033 371.618 359.578C371.618 353.498 370.667 348.948 368.767 345.926C366.904 342.868 363.96 341.339 359.936 341.339Z" fill="#E8E8E8"/>
</svg>
