<svg width="338" height="228" viewBox="0 0 338 228" fill="none" xmlns="http://www.w3.org/2000/svg">
<path d="M154.146 114.227C154.146 152.909 147.812 181.542 135.142 200.125C122.573 218.708 103.167 228 76.9224 228C51.4827 228 32.2772 218.405 19.306 199.216C6.43534 180.027 0 151.697 0 114.227C0 75.1415 6.28451 46.3575 18.8535 27.8751C31.4225 9.29169 50.7788 0 76.9224 0C102.362 0 121.568 9.69568 134.539 29.087C147.611 48.4784 154.146 76.8585 154.146 114.227ZM46.3043 114.227C46.3043 141.395 48.617 160.888 53.2424 172.704C57.9683 184.42 65.8617 190.278 76.9224 190.278C87.782 190.278 95.6251 184.319 100.452 172.401C105.278 160.484 107.691 141.092 107.691 114.227C107.691 87.0591 105.228 67.5668 100.301 55.7502C95.4743 43.8326 87.6815 37.8738 76.9224 37.8738C65.9622 37.8738 58.1191 43.8326 53.3932 55.7502C48.6672 67.5668 46.3043 87.0591 46.3043 114.227Z" fill="black" fill-opacity="0.08"/>
<path d="M338 224.97H183.854V192.399L239.208 136.194C255.598 119.328 266.306 107.662 271.334 101.199C276.362 94.6339 279.981 88.5741 282.194 83.0193C284.406 77.4645 285.512 71.7076 285.512 65.7488C285.512 56.8611 283.048 50.2458 278.121 45.903C273.295 41.5601 266.809 39.3887 258.664 39.3887C250.117 39.3887 241.822 41.3581 233.778 45.297C225.734 49.2359 217.337 54.8412 208.589 62.113L183.25 31.9654C194.11 22.6738 203.109 16.109 210.249 12.2711C217.388 8.43322 225.18 5.50432 233.627 3.48439C242.073 1.36346 251.525 0.30299 261.983 0.30299C275.758 0.30299 287.925 2.82791 298.483 7.87774C309.041 12.9276 317.236 19.9973 323.068 29.087C328.9 38.1767 331.816 48.5794 331.816 60.295C331.816 70.4957 330.006 80.0904 326.386 89.0791C322.867 97.9668 317.337 107.107 309.795 116.5C302.354 125.892 289.182 139.274 270.278 156.646L241.922 183.46V185.581H338V224.97Z" fill="black" fill-opacity="0.08"/>
</svg>
