<svg width="300" height="228" viewBox="0 0 300 228" fill="none" xmlns="http://www.w3.org/2000/svg">
<path d="M154.617 114.227C154.617 152.909 148.263 181.542 135.555 200.125C122.948 218.708 103.482 228 77.1574 228C51.64 228 32.3758 218.405 19.365 199.216C6.455 180.027 0 151.697 0 114.227C0 75.1415 6.30371 46.3575 18.9111 27.8751C31.5185 9.29169 50.934 0 77.1574 0C102.675 0 121.939 9.69568 134.95 29.087C148.061 48.4784 154.617 76.8585 154.617 114.227ZM46.4457 114.227C46.4457 141.395 48.7655 160.888 53.405 172.704C58.1454 184.42 66.0629 190.278 77.1574 190.278C88.0502 190.278 95.9172 184.319 100.758 172.401C105.6 160.484 108.02 141.092 108.02 114.227C108.02 87.0591 105.549 67.5668 100.607 55.7502C95.7659 43.8326 87.9493 37.8738 77.1574 37.8738C66.1637 37.8738 58.2967 43.8326 53.5563 55.7502C48.8159 67.5668 46.4457 87.0591 46.4457 114.227Z" fill="black" fill-opacity="0.08"/>
<path d="M300 224.97H253.252V96.8053L253.706 75.7475L254.462 52.7203C246.696 60.497 241.3 65.5973 238.274 68.0213L212.858 88.4731L190.315 60.295L261.573 3.48439H300V224.97Z" fill="black" fill-opacity="0.08"/>
</svg>
